<svg width="70" height="48" viewBox="0 0 70 48" fill="none" xmlns="http://www.w3.org/2000/svg">
<path d="M62.138 10.326C61.9505 10.1385 61.6962 10.0331 61.431 10.033H47.705V1C47.705 0.734784 47.5996 0.480431 47.4121 0.292894C47.2246 0.105358 46.9702 0 46.705 0H1C0.734784 0 0.48043 0.105358 0.292893 0.292894C0.105357 0.480431 0 0.734784 0 1V40.017C0 40.2822 0.105357 40.5366 0.292893 40.7241C0.48043 40.9116 0.734784 41.017 1 41.017H8.105C8.598 44.784 11.822 47.706 15.721 47.706C19.62 47.706 22.844 44.784 23.337 41.017H50.237C50.729 44.784 53.953 47.706 57.853 47.706C61.753 47.706 64.976 44.784 65.468 41.017H69C69.2652 41.017 69.5196 40.9116 69.7071 40.7241C69.8946 40.5366 70 40.2822 70 40.017V18.603C70.0001 18.4715 69.9743 18.3413 69.924 18.2198C69.8737 18.0983 69.8 17.988 69.707 17.895L62.138 10.326ZM68 19.016V23.411H55.508V12.033H61.017L68 19.017V19.016ZM45.705 2.001V27.87H2V2H45.705V2.001ZM2 29.87H45.705V39.017H23.337C22.844 35.25 19.621 32.329 15.721 32.329C11.821 32.329 8.598 35.249 8.105 39.017H2V29.87ZM15.721 45.706C12.584 45.706 10.033 43.154 10.033 40.017C10.033 36.88 12.584 34.329 15.721 34.329C18.858 34.329 21.41 36.88 21.41 40.017C21.41 43.154 18.858 45.706 15.721 45.706ZM57.853 45.706C54.716 45.706 52.164 43.154 52.164 40.017C52.164 36.88 54.716 34.329 57.853 34.329C60.99 34.329 63.541 36.88 63.541 40.017C63.541 43.154 60.989 45.706 57.853 45.706ZM65.468 39.017C64.976 35.25 61.752 32.329 57.853 32.329C53.954 32.329 50.729 35.249 50.237 39.017H47.705V12.033H53.508V24.411C53.508 24.6762 53.6134 24.9306 53.8009 25.1181C53.9884 25.3056 54.2428 25.411 54.508 25.411H68V39.017H65.468Z" fill="black"/>
<path fill-rule="evenodd" clip-rule="evenodd" d="M40 5.85303H8V23.6308H40V5.85303ZM17.8818 10.0308L13.9991 18.7419H16.0649L16.8412 16.8752H20.8792L21.6524 18.7419H23.768L19.8729 10.0308H17.8818ZM20.2451 15.3445L18.8641 12.0107L17.4777 15.3445H20.2451ZM24.6718 10.0308V18.7419H28.6291C29.5749 18.7419 30.4087 18.5635 31.1304 18.2068C31.8522 17.8417 32.4164 17.3357 32.8229 16.6885C33.2294 16.0331 33.4327 15.2657 33.4327 14.3863C33.4327 13.4986 33.2294 12.7312 32.8229 12.0841C32.4164 11.437 31.8522 10.9351 31.1304 10.5783C30.4087 10.2133 29.5749 10.0308 28.6291 10.0308H24.6718ZM28.5296 17.0868H26.6878V11.6859H28.5296C29.1103 11.6859 29.6122 11.7979 30.0353 12.0219C30.4667 12.2376 30.7986 12.5487 31.0309 12.9552C31.2715 13.3534 31.3918 13.8305 31.3918 14.3863C31.3918 14.9339 31.2715 15.4109 31.0309 15.8174C30.7986 16.224 30.4667 16.5392 30.0353 16.7632C29.6122 16.9789 29.1103 17.0868 28.5296 17.0868Z" fill="black"/>
<path d="M52 28.5H55.5" stroke="black" stroke-width="2"/>
</svg>
