<svg xmlns="http://www.w3.org/2000/svg" viewBox="0 0 332.45 89.53"><defs><style>.cls-1{fill:#fff;}.cls-2{fill:#ffb800;}</style></defs><g id="Layer_2" data-name="Layer 2"><g id="Layer_1-2" data-name="Layer 1"><path class="cls-1" d="M24.06,87.91H0L27.08,4.42H55.23L83.17,87.91h-25l-3.88-13.8H27.83ZM40.77,26.32,32.25,57.71H49.62Z"/><path class="cls-1" d="M110.46,89.42a20.5,20.5,0,0,1-17.21-8.68q-6.52-8.68-6.52-23.46,0-15.42,7-24.43t17.86-9A17.72,17.72,0,0,1,122.16,27,20.26,20.26,0,0,1,129,36.46h.22V0h23.3V87.91H129.77V74.65h-.22a22.9,22.9,0,0,1-7.33,11A18.57,18.57,0,0,1,110.46,89.42Zm-.11-32.68q0,6.9,2.43,10.63a7.83,7.83,0,0,0,7,3.72,8,8,0,0,0,7.11-3.72q2.49-3.72,2.49-10.85,0-6.8-2.49-10.57a7.82,7.82,0,0,0-6.9-3.77A8,8,0,0,0,112.89,46Q110.36,49.84,110.35,56.74Z"/><path class="cls-2" d="M204.31,61.92a5.19,5.19,0,0,0-2.54-1.67,15.61,15.61,0,0,0-4.48-.49h-8.95V87.91H164.28V4.42H202.9q16.29,0,24.81,6t8.53,17.69a21,21,0,0,1-5.94,15.21q-5.93,6.15-16.39,7.77v.33q7.22,1.6,10.51,5.12c2.2,2.34,4.08,6.38,5.67,12.13s2.73,9.89,3.45,12.19a68.67,68.67,0,0,0,2.37,6.48v.53h-25a17.33,17.33,0,0,1-1-3.07q-.48-1.89-2.1-11.81a54.74,54.74,0,0,0-1.57-7.71A9.14,9.14,0,0,0,204.31,61.92Zm7.44-29.45c0-3.31-1-5.73-3.08-7.28s-5.26-2.32-9.65-2.32H188.34V43h10.79q6.26,0,9.44-2.64C210.69,38.64,211.75,36,211.75,32.47Z"/><path class="cls-2" d="M274.31,89.53q-15.53,0-24.38-8.57t-8.84-23.79q0-14.88,9.44-24.11t23.89-9.22a33.4,33.4,0,0,1,16.29,3.78,24.54,24.54,0,0,1,10.46,11,35.94,35.94,0,0,1,3.35,9.87,58.08,58.08,0,0,1,1,12H263.85c.22,3.74,1.33,6.59,3.34,8.57s4.79,3,8.31,3a12.47,12.47,0,0,0,7.12-1.89,10.8,10.8,0,0,0,4.1-5.77l19.42,4.42A28.49,28.49,0,0,1,294.54,84Q286.19,89.54,274.31,89.53Zm7.77-44.44A7.8,7.8,0,0,0,279,41.64a9.44,9.44,0,0,0-4.9-1.19,9.71,9.71,0,0,0-6.85,2.43A11.14,11.14,0,0,0,264,49.73h19.2c-.15-1-.29-1.89-.43-2.64A7.83,7.83,0,0,0,282.08,45.09Z"/><path class="cls-2" d="M332.45,87.91H311V68.17h21.46Z"/><polygon class="cls-1" points="198.14 4.42 164.28 27.25 164.28 4.42 198.14 4.42"/></g></g></svg>